<?xml version="1.0" encoding="UTF-8"?>
<svg version="1.1" xmlns="http://www.w3.org/2000/svg" width="344" height="120">
<path d="M0 0 C13.19127604 10.4079756 22.10610764 23.1834814 24.62890625 40.07421875 C25.7474391 58.86952607 22.985256 75.86621502 10.25390625 90.51171875 C-0.74238011 101.82271365 -14.14158731 109.72873504 -30.203125 110.375 C-31.8631721 110.39443309 -33.52347109 110.39797927 -35.18359375 110.38671875 C-36.06015625 110.3810791 -36.93671875 110.37543945 -37.83984375 110.36962891 C-55.78699844 110.03494231 -69.13942409 102.73133779 -81.37109375 90.07421875 C-87.19989191 83.81840241 -90.56470978 77.1254926 -93.37109375 69.07421875 C-93.73847656 68.0378125 -94.10585937 67.00140625 -94.484375 65.93359375 C-97.45641805 52.99800549 -96.92166103 37.21284252 -91.37109375 25.07421875 C-90.73494141 23.65496094 -90.73494141 23.65496094 -90.0859375 22.20703125 C-82.82929474 7.61289177 -70.54333814 -2.34590625 -55.37109375 -7.92578125 C-36.87462636 -13.60469664 -15.94304168 -10.95341612 0 0 Z " fill="#F9F7F8" transform="translate(95.37109375,9.92578125)"/>
<path d="M0 0 C13.19127604 10.4079756 22.10610764 23.1834814 24.62890625 40.07421875 C25.7474391 58.86952607 22.985256 75.86621502 10.25390625 90.51171875 C-0.74238011 101.82271365 -14.14158731 109.72873504 -30.203125 110.375 C-31.8631721 110.39443309 -33.52347109 110.39797927 -35.18359375 110.38671875 C-36.06015625 110.3810791 -36.93671875 110.37543945 -37.83984375 110.36962891 C-55.78699844 110.03494231 -69.13942409 102.73133779 -81.37109375 90.07421875 C-87.19989191 83.81840241 -90.56470978 77.1254926 -93.37109375 69.07421875 C-93.73847656 68.0378125 -94.10585937 67.00140625 -94.484375 65.93359375 C-97.45641805 52.99800549 -96.92166103 37.21284252 -91.37109375 25.07421875 C-90.73494141 23.65496094 -90.73494141 23.65496094 -90.0859375 22.20703125 C-82.82929474 7.61289177 -70.54333814 -2.34590625 -55.37109375 -7.92578125 C-36.87462636 -13.60469664 -15.94304168 -10.95341612 0 0 Z M-73.37109375 17.07421875 C-82.38193092 29.32389097 -86.83811348 41.75996397 -85.37109375 57.07421875 C-84.38964559 61.24284393 -83.00811558 65.12140994 -81.37109375 69.07421875 C-81.09394531 69.79222656 -80.81679687 70.51023437 -80.53125 71.25 C-75.58579816 82.62226021 -64.88951559 91.66191547 -53.5625 96.26171875 C-39.66668166 101.41382252 -26.26823454 100.01308417 -12.94921875 93.9765625 C0.09882874 87.34005559 7.12567472 77.16150882 11.8671875 63.6171875 C15.69310862 50.84449699 13.98485298 38.28923069 8.34375 26.35546875 C1.05887693 13.2061714 -10.34145163 5.75076612 -24.37109375 1.07421875 C-27.72059758 0.81838348 -31.07534166 0.84281115 -34.43359375 0.82421875 C-35.33787109 0.80359375 -36.24214844 0.78296875 -37.17382812 0.76171875 C-51.23280973 0.68132429 -63.85376553 6.70783428 -73.37109375 17.07421875 Z " fill="#237AB4" transform="translate(95.37109375,9.92578125)"/>
<path d="M0 0 C10.44117301 8.24063509 16.59074733 17.69563392 18.85546875 30.9453125 C19.2230525 34.08841995 19.26241296 37.08950191 19.125 40.25 C18.795 40.25 18.465 40.25 18.125 40.25 C18.125 38.6 18.125 36.95 18.125 35.25 C16.64 34.755 16.64 34.755 15.125 34.25 C14.13244483 32.59574138 13.14760643 30.93551306 12.23046875 29.23828125 C10.4311865 26.00211636 8.43421155 23.15131707 6.125 20.25 C5.135 20.25 4.145 20.25 3.125 20.25 C1.08203125 17.84375 1.08203125 17.84375 -1.0625 14.75 C-1.77792969 13.7290625 -2.49335937 12.708125 -3.23046875 11.65625 C-3.77316406 10.8621875 -4.31585938 10.068125 -4.875 9.25 C-5.535 10.57 -6.195 11.89 -6.875 13.25 C-7.71804687 12.3115625 -8.56109375 11.373125 -9.4296875 10.40625 C-10.5361728 9.18724077 -11.64295924 7.96850482 -12.75 6.75 C-13.58337891 5.81994141 -13.58337891 5.81994141 -14.43359375 4.87109375 C-14.96855469 4.28457031 -15.50351563 3.69804687 -16.0546875 3.09375 C-16.54694824 2.54912109 -17.03920898 2.00449219 -17.54638672 1.44335938 C-18.8253422 0.02725859 -18.8253422 0.02725859 -20.875 0.25 C-21.535 -0.74 -22.195 -1.73 -22.875 -2.75 C-23.68998562 -1.1470947 -24.50189927 0.45737278 -25.3125 2.0625 C-25.76496094 2.95582031 -26.21742187 3.84914063 -26.68359375 4.76953125 C-27.9581605 7.28999478 -27.9581605 7.28999478 -28.875 10.25 C-26.895 10.25 -24.915 10.25 -22.875 10.25 C-23.37 6.785 -23.37 6.785 -23.875 3.25 C-23.215 3.25 -22.555 3.25 -21.875 3.25 C-18.875 8.875 -18.875 8.875 -18.875 12.25 C-23.825 12.25 -28.775 12.25 -33.875 12.25 C-32.57291667 9.22265625 -31.27083333 6.1953125 -29.96875 3.16796875 C-28.69950697 0.30117976 -28.69950697 0.30117976 -28.875 -2.75 C-34.7030757 2.21906227 -39.9913329 7.34563077 -44.875 13.25 C-45.535 11.93 -46.195 10.61 -46.875 9.25 C-49.845 13.21 -52.815 17.17 -55.875 21.25 C-56.535 20.92 -57.195 20.59 -57.875 20.25 C-59.54743423 22.53765111 -61.21306927 24.82973892 -62.875 27.125 C-63.59042969 28.10146484 -63.59042969 28.10146484 -64.3203125 29.09765625 C-66.95588153 32.34380981 -66.95588153 32.34380981 -67.875 36.25 C-68.535 36.25 -69.195 36.25 -69.875 36.25 C-69.545 37.24 -69.215 38.23 -68.875 39.25 C-68.215 39.25 -67.555 39.25 -66.875 39.25 C-66.61460938 39.97832031 -66.35421875 40.70664062 -66.0859375 41.45703125 C-64.84269574 44.3245082 -63.41449689 46.47540684 -61.5 48.9375 C-60.62214844 50.08798828 -60.62214844 50.08798828 -59.7265625 51.26171875 C-58.02907954 53.32086828 -58.02907954 53.32086828 -55.8828125 54.23046875 C-53.1785613 55.60363911 -51.92290696 57.45474064 -50.125 59.875 C-49.51140625 60.69226563 -48.8978125 61.50953125 -48.265625 62.3515625 C-47.80671875 62.97804688 -47.3478125 63.60453125 -46.875 64.25 C-46.215 63.26 -45.555 62.27 -44.875 61.25 C-36.48790323 69.47580645 -36.48790323 69.47580645 -33.5 73.25 C-31.95009866 75.52323128 -31.95009866 75.52323128 -28.875 76.25 C-27.885 77.24 -27.885 77.24 -26.875 78.25 C-24.57511105 79.03063199 -24.57511105 79.03063199 -21.875 78.25 C-19.38184136 76.06604613 -17.37560984 73.52291613 -15.3125 70.9375 C-14.18986858 69.56339915 -13.06366885 68.1922044 -11.93359375 66.82421875 C-11.44173584 66.21151123 -10.94987793 65.59880371 -10.44311523 64.9675293 C-8.74447705 63.10704049 -6.92940719 61.69992512 -4.875 60.25 C-4.545 61.57 -4.215 62.89 -3.875 64.25 C-1.235 60.62 1.405 56.99 4.125 53.25 C4.785 53.58 5.445 53.91 6.125 54.25 C6.65609375 53.47914062 7.1871875 52.70828125 7.734375 51.9140625 C8.79398438 50.40972656 8.79398438 50.40972656 9.875 48.875 C10.91914063 47.37839844 10.91914063 47.37839844 11.984375 45.8515625 C13.99222376 43.41136674 15.21543174 42.33781156 18.125 41.25 C17.32128716 53.90847729 11.9547961 62.92892481 2.75 71.5 C-5.90308284 78.85728008 -17.05006315 83.02896838 -28.5390625 82.53125 C-42.52454959 80.84737864 -53.70632283 75.21950428 -62.4921875 64.2265625 C-70.26994624 53.50795966 -71.95973354 42.15966834 -70.875 29.25 C-68.98367647 17.68322801 -62.02378992 7.40244992 -52.875 0.25 C-36.25132413 -10.08946622 -16.58139311 -11.47595055 0 0 Z " fill="#FAF7F9" transform="translate(85.875,22.75)"/>
<path d="M0 0 C13.19127604 10.4079756 22.10610764 23.1834814 24.62890625 40.07421875 C25.7474391 58.86952607 22.985256 75.86621502 10.25390625 90.51171875 C-0.74238011 101.82271365 -14.14158731 109.72873504 -30.203125 110.375 C-31.8631721 110.39443309 -33.52347109 110.39797927 -35.18359375 110.38671875 C-36.06015625 110.3810791 -36.93671875 110.37543945 -37.83984375 110.36962891 C-55.78699844 110.03494231 -69.13942409 102.73133779 -81.37109375 90.07421875 C-87.19989191 83.81840241 -90.56470978 77.1254926 -93.37109375 69.07421875 C-93.73847656 68.0378125 -94.10585937 67.00140625 -94.484375 65.93359375 C-97.45641805 52.99800549 -96.92166103 37.21284252 -91.37109375 25.07421875 C-90.73494141 23.65496094 -90.73494141 23.65496094 -90.0859375 22.20703125 C-82.82929474 7.61289177 -70.54333814 -2.34590625 -55.37109375 -7.92578125 C-36.87462636 -13.60469664 -15.94304168 -10.95341612 0 0 Z M-78.37109375 12.07421875 C-89.43667245 25.43520125 -93.66288119 39.98681258 -92.37109375 57.07421875 C-90.22186688 72.24523197 -82.21972176 86.1629656 -69.99609375 95.38671875 C-58.93055894 102.97320037 -49.41763661 106.43006412 -36.05859375 106.38671875 C-35.07697266 106.40283203 -34.09535156 106.41894531 -33.08398438 106.43554688 C-18.33798905 106.44530597 -6.26170948 100.50303213 4.34765625 90.4140625 C14.33380035 80.17142497 20.34774447 68.431365 21.62890625 54.07421875 C21.69980469 53.32914063 21.77070312 52.5840625 21.84375 51.81640625 C22.51249115 37.31809821 16.73042656 22.80291268 7.56640625 11.76171875 C-2.76207275 1.08133246 -16.65624784 -6.1801607 -31.5625 -7.12890625 C-50.10011373 -7.38667145 -65.57144748 -1.67354947 -78.37109375 12.07421875 Z " fill="#F8FAFC" transform="translate(95.37109375,9.92578125)"/>
<path d="M0 0 C13.61963444 10.34350452 20.86064588 24.3267254 23.26953125 41.1484375 C23.57600276 44.21801726 23.55243503 47.07919842 23.26953125 50.1484375 C23.21152344 51.02371094 23.15351562 51.89898437 23.09375 52.80078125 C21.3207329 68.71521187 12.00112077 81.80060794 0.01953125 91.8984375 C-14.02114864 102.33006939 -28.84942088 103.44287826 -45.73046875 102.1484375 C-58.00990034 100.22230483 -70.56743176 91.85170908 -78.24609375 82.234375 C-88.12043009 68.35833393 -92.22725581 54.19631196 -90.73046875 37.1484375 C-87.93871382 22.66321763 -80.05490717 8.67679571 -68.00683594 -0.10839844 C-46.48222573 -14.25785485 -21.5287185 -14.59887349 0 0 Z M-74.73046875 10.1484375 C-85.46603324 23.19911418 -89.30526107 37.4995329 -87.73046875 54.1484375 C-86.8279165 58.69534938 -85.47093128 62.85759423 -83.73046875 67.1484375 C-83.39144531 68.01855469 -83.05242187 68.88867188 -82.703125 69.78515625 C-77.00949287 82.69207322 -65.887543 92.13869842 -52.890625 97.26953125 C-50.51393246 98.01649176 -48.16562468 98.62822003 -45.73046875 99.1484375 C-44.78171875 99.3753125 -43.83296875 99.6021875 -42.85546875 99.8359375 C-26.19380903 101.50210347 -11.65609342 97.67532306 1.73046875 87.375 C12.98215431 77.50813728 18.93985984 64.03440263 20.58984375 49.28515625 C21.2136555 33.91859347 15.85742236 20.60412656 6.08203125 8.9609375 C-3.23343137 -0.97867672 -15.83940871 -7.22306806 -29.48046875 -8.08984375 C-47.67668427 -8.56316809 -62.02381468 -3.08415424 -74.73046875 10.1484375 Z " fill="#1B76B2" transform="translate(93.73046875,13.8515625)"/>
<path d="M0 0 C0.87011719 0.33902344 1.74023438 0.67804687 2.63671875 1.02734375 C14.9167482 6.44443681 24.27568374 16.80879748 29.27734375 29.15234375 C34.64771413 44.61365919 34.17230445 58.92618872 27.6796875 74.08203125 C19.97938487 89.12497218 7.75777185 97.55764816 -8 103 C-11.5 103.8125 -11.5 103.8125 -15 104 C-15.86882812 104.05027344 -16.73765625 104.10054688 -17.6328125 104.15234375 C-32.75907141 104.64602061 -46.30256463 100.20507747 -57.8125 90.3125 C-68.39794336 80.12362945 -74.90460025 66.9583084 -75.29272461 52.17651367 C-75.43578161 36.4314132 -70.6781754 22.73705634 -59.6875 11.125 C-52.17795063 4.09829814 -43.75552206 0.0388607 -34 -3 C-33.39800781 -3.19335938 -32.79601563 -3.38671875 -32.17578125 -3.5859375 C-21.25027296 -5.66511861 -10.20326541 -4.13867392 0 0 Z M-61.78515625 17.0078125 C-70.86332222 28.47741349 -74.17282906 40.51556105 -73 55 C-71.57534429 64.52510193 -68.85395328 73.23094831 -63 81 C-62.41347656 81.77859375 -61.82695313 82.5571875 -61.22265625 83.359375 C-53.42005365 92.86929556 -43.12711612 98.88713132 -31 101 C-14.61336106 102.56470832 -1.36052606 100.06671378 12 90 C21.7140192 81.9021781 28.92803758 70.38235347 30.24365234 57.64013672 C31.33689368 41.44975313 28.91337674 27.66406426 18 15 C8.17396336 4.74407426 -4.76051643 -1.90762736 -19.05761719 -2.42163086 C-36.51445895 -2.55562882 -50.22051291 4.00075194 -61.78515625 17.0078125 Z " fill="#E2EBF3" transform="translate(81,10)"/>
<path d="M0 0 C10.56 0 21.12 0 32 0 C32.495 1.485 32.495 1.485 33 3 C27.72 3 22.44 3 17 3 C17 3.99 17 4.98 17 6 C22.61 6 28.22 6 34 6 C31.125 14.75 31.125 14.75 30 17 C29.01 17 28.02 17 27 17 C27.99 14.03 28.98 11.06 30 8 C26.91240441 8.64067976 26.91240441 8.64067976 26.05078125 10.84765625 C25.80714844 11.57855469 25.56351563 12.30945313 25.3125 13.0625 C25.06113281 13.79597656 24.80976562 14.52945313 24.55078125 15.28515625 C24.36902344 15.85105469 24.18726562 16.41695312 24 17 C22.68 17 21.36 17 20 17 C21.875 11.25 21.875 11.25 23 9 C21.02 9 19.04 9 17 9 C17 12.3 17 15.6 17 19 C20.63 19 24.26 19 28 19 C27.23539233 22.82303833 26.52385218 25.38393238 24.9375 28.8125 C24.57527344 29.60269531 24.21304688 30.39289063 23.83984375 31.20703125 C23.56269531 31.79871094 23.28554687 32.39039063 23 33 C21.02 33 19.04 33 17 33 C17.33 34.32 17.66 35.64 18 37 C18.33 36.34 18.66 35.68 19 35 C19.99 35 20.98 35 22 35 C19.10933941 44.59453303 19.10933941 44.59453303 16 48 C13.64880601 44.47320901 13.78556548 42.97120515 13.875 38.8125 C13.89304687 37.72582031 13.91109375 36.63914063 13.9296875 35.51953125 C13.95289063 34.68808594 13.97609375 33.85664062 14 33 C12.35 33 10.7 33 9 33 C7.99515796 31.04414675 6.99626195 29.08523763 6 27.125 C5.443125 26.03445312 4.88625 24.94390625 4.3125 23.8203125 C3 21 3 21 3 19 C6.63 19 10.26 19 14 19 C14 15.7 14 12.4 14 9 C12.35 9 10.7 9 9 9 C9.495 9.94875 9.99 10.8975 10.5 11.875 C12 15 12 15 12 17 C10.68 17 9.36 17 8 17 C6.74335022 14.09399739 6 12.20395416 6 9 C5.01 9 4.02 9 3 9 C3.33 9.763125 3.66 10.52625 4 11.3125 C5 14 5 14 5 17 C4.01 17 3.02 17 2 17 C1.32880451 15.5437455 0.66318193 14.08492133 0 12.625 C-0.37125 11.81289062 -0.7425 11.00078125 -1.125 10.1640625 C-2 8 -2 8 -2 6 C3.28 6 8.56 6 14 6 C14 5.01 14 4.02 14 3 C9.05 3 4.1 3 -1 3 C-0.67 2.01 -0.34 1.02 0 0 Z " fill="#1975B1" transform="translate(44,54)"/>
<path d="M0 0 C0.804375 0.45761719 1.60875 0.91523438 2.4375 1.38671875 C14.14559592 8.60539276 21.4030148 18.90908297 25.4375 32 C28.23757443 46.56038704 25.10739248 60.75618279 17 73 C9.36868139 83.40485162 -2.23942279 90.57159572 -15 93 C-30.53873311 94.07834212 -44.26645974 91.25404214 -56.44140625 80.9296875 C-65.18941682 72.65726894 -72.31797828 60.44337771 -73.203125 48.1875 C-73.4323916 32.59737124 -69.027722 19.56627179 -58.2734375 8.0703125 C-42.94382176 -5.88964685 -18.41028307 -10.90233951 0 0 Z M-59 12 C-66.60370302 21.58804122 -70.1767796 31.12339997 -70.1875 43.3125 C-70.19974609 44.03373047 -70.21199219 44.75496094 -70.22460938 45.49804688 C-70.26091096 58.99013741 -64.43338064 69.75566019 -55.10546875 79.22265625 C-45.58528459 88.1944778 -34.13505932 91.48609647 -21.37109375 91.25 C-8.62296812 90.30460018 3.22470945 85.41830753 12 76 C21.39990204 64.11956826 25.22393867 51.08504408 24 36 C21.43858131 23.74594014 14.97133672 12.66456291 4.71875 5.37890625 C2.19959946 3.78052118 -0.34608927 2.3622885 -3 1 C-3.80953125 0.58363281 -4.6190625 0.16726562 -5.453125 -0.26171875 C-23.77295106 -8.26961818 -45.58658746 -2.12236669 -59 12 Z " fill="#E0EAF2" transform="translate(83,16)"/>
<path d="M0 0 C15.31753378 -0.76269878 27.09696802 1.60392239 39 12 C47.79916514 20.1492268 52.4926177 31.23726479 53.11328125 43.1796875 C53.12296309 44.78687281 53.06981294 46.39430248 53 48 C52.67 48 52.34 48 52 48 C52 46.35 52 44.7 52 43 C51.01 42.67 50.02 42.34 49 42 C48.00744483 40.34574138 47.02260643 38.68551306 46.10546875 36.98828125 C44.3061865 33.75211636 42.30921155 30.90131707 40 28 C39.01 28 38.02 28 37 28 C34.95703125 25.59375 34.95703125 25.59375 32.8125 22.5 C32.09707031 21.4790625 31.38164063 20.458125 30.64453125 19.40625 C30.10183594 18.6121875 29.55914062 17.818125 29 17 C28.34 18.32 27.68 19.64 27 21 C25.73542969 19.59234375 25.73542969 19.59234375 24.4453125 18.15625 C23.3388272 16.93724077 22.23204076 15.71850482 21.125 14.5 C20.56941406 13.87996094 20.01382813 13.25992187 19.44140625 12.62109375 C18.63896484 11.74130859 18.63896484 11.74130859 17.8203125 10.84375 C17.08192139 10.02680664 17.08192139 10.02680664 16.32861328 9.19335938 C15.0496578 7.77725859 15.0496578 7.77725859 13 8 C12.34 7.01 11.68 6.02 11 5 C10.18501438 6.6029053 9.37310073 8.20737278 8.5625 9.8125 C8.11003906 10.70582031 7.65757813 11.59914063 7.19140625 12.51953125 C5.9168395 15.03999478 5.9168395 15.03999478 5 18 C6.98 18 8.96 18 11 18 C10.67 15.69 10.34 13.38 10 11 C10.66 11 11.32 11 12 11 C15 16.625 15 16.625 15 20 C10.05 20 5.1 20 0 20 C1.30208333 16.97265625 2.60416667 13.9453125 3.90625 10.91796875 C5.17549303 8.05117976 5.17549303 8.05117976 5 5 C4.01 5.66 3.02 6.32 2 7 C3 5 4 3 5 1 C3.35 1 1.7 1 0 1 C0 0.67 0 0.34 0 0 Z " fill="#F8F4F5" transform="translate(52,15)"/>
<path d="M0 0 C10.28585731 8.62196863 17.17551947 19.76754255 18.4609375 33.32421875 C18.61271321 47.48489294 14.58136566 60.47493677 4.90234375 71.08984375 C-5.8270466 81.3004504 -18.97383299 85.15598191 -33.53515625 84.9921875 C-45.20282422 84.25528215 -56.18602002 78.41296211 -64.09375 69.921875 C-74.56837905 57.3339436 -76.96850294 44.88200304 -75.875 28.78125 C-73.82328813 16.30942668 -66.35336987 5.95306406 -56.4140625 -1.54296875 C-38.89550981 -13.10521353 -16.94715667 -12.21192172 0 0 Z M-63.76171875 8.078125 C-72.52036823 19.28142525 -75.32364949 31.75273619 -73.875 45.78125 C-71.17144148 58.09886475 -64.31296183 68.60113252 -53.875 75.78125 C-42.84298727 82.48259107 -31.36202079 84.41275854 -18.8125 81.53125 C-6.15737805 78.04349199 4.42141804 70.2971212 11.125 58.78125 C16.03615828 48.86418441 17.65345892 37.08932272 14.97265625 26.27734375 C10.694736 13.68015001 3.16356686 2.90287055 -8.875 -3.21875 C-28.79893422 -11.73483906 -48.91094579 -7.43209614 -63.76171875 8.078125 Z " fill="#287CB5" transform="translate(88.875,22.21875)"/>
<path d="M0 0 C8.91 0 17.82 0 27 0 C28.98 3.63 30.96 7.26 33 11 C33.66 11 34.32 11 35 11 C36.98 7.37 38.96 3.74 41 0 C42.65 0 44.3 0 46 0 C43 6 40 12 37 18 C36.7724985 19.87056791 36.59037189 21.74685958 36.4375 23.625 C36.35371094 24.62789062 36.26992188 25.63078125 36.18359375 26.6640625 C36.09271484 27.82035156 36.09271484 27.82035156 36 29 C34.68 29 33.36 29 32 29 C32.020625 28.36835937 32.04125 27.73671875 32.0625 27.0859375 C31.84932072 17.83928606 27.84910858 11.56637672 23 4 C20.03 4 17.06 4 14 4 C14 12.25 14 20.5 14 29 C12.35 29 10.7 29 9 29 C9 20.75 9 12.5 9 4 C6.03 4 3.06 4 0 4 C0 2.68 0 1.36 0 0 Z " fill="#000000" transform="translate(225,45)"/>
<path d="M0 0 C-0.59900842 3.54991306 -1.55211126 6.54811143 -3.0625 9.8125 C-3.42472656 10.60269531 -3.78695312 11.39289063 -4.16015625 12.20703125 C-4.43730469 12.79871094 -4.71445313 13.39039062 -5 14 C-6.98 14 -8.96 14 -11 14 C-10.67 15.32 -10.34 16.64 -10 18 C-9.67 17.34 -9.34 16.68 -9 16 C-8.01 16 -7.02 16 -6 16 C-8.89066059 25.59453303 -8.89066059 25.59453303 -12 29 C-14.35119399 25.47320901 -14.21443452 23.97120515 -14.125 19.8125 C-14.10695313 18.72582031 -14.08890625 17.63914062 -14.0703125 16.51953125 C-14.04710937 15.68808594 -14.02390625 14.85664062 -14 14 C-15.65 14 -17.3 14 -19 14 C-20.00484204 12.04414675 -21.00373805 10.08523763 -22 8.125 C-22.556875 7.03445312 -23.11375 5.94390625 -23.6875 4.8203125 C-25 2 -25 2 -25 0 C-16.51118727 -0.99418527 -8.49624785 -0.89073566 0 0 Z " fill="#277DB5" transform="translate(72,73)"/>
<path d="M0 0 C5.94 0 11.88 0 18 0 C23 9.625 23 9.625 23 13 C13.43 13 3.86 13 -6 13 C-4 7 -4 7 0 0 Z " fill="#287EB6" transform="translate(51,38)"/>
<path d="M0 0 C1.32 0 2.64 0 4 0 C5.65006981 4.08163412 7.29431993 8.16558788 8.9375 12.25 C9.64036133 13.98830078 9.64036133 13.98830078 10.35742188 15.76171875 C10.80537109 16.87675781 11.25332031 17.99179687 11.71484375 19.140625 C12.12855225 20.16704102 12.54226074 21.19345703 12.96850586 22.25097656 C13.81309428 24.50187968 14.48756809 26.65605307 15 29 C13.35 29 11.7 29 10 29 C8.515 25.535 8.515 25.535 7 22 C3.37 21.67 -0.26 21.34 -4 21 C-4.66 23.31 -5.32 25.62 -6 28 C-7.65 28.33 -9.3 28.66 -11 29 C-10.36095942 25.30460566 -9.33807939 22.00415463 -7.96875 18.515625 C-7.57042969 17.49855469 -7.17210937 16.48148438 -6.76171875 15.43359375 C-6.34535156 14.38300781 -5.92898438 13.33242188 -5.5 12.25 C-5.08363281 11.18394531 -4.66726563 10.11789063 -4.23828125 9.01953125 C-1.13448661 1.13448661 -1.13448661 1.13448661 0 0 Z M1 7 C0.01 10.3 -0.98 13.6 -2 17 C0.64 17 3.28 17 6 17 C4.68 13.7 3.36 10.4 2 7 C1.67 7 1.34 7 1 7 Z " fill="#000000" transform="translate(315,45)"/>
<path d="M0 0 C1.65 0 3.3 0 5 0 C6.56872755 3.96847107 8.13525154 7.93780246 9.69970703 11.90795898 C10.23262475 13.25943702 10.76615211 14.61067483 11.30029297 15.96166992 C12.06637046 17.89960435 12.83027686 19.83838209 13.59375 21.77734375 C14.05458984 22.94515381 14.51542969 24.11296387 14.99023438 25.31616211 C16 28 16 28 16 29 C14.35 29 12.7 29 11 29 C9.515 25.535 9.515 25.535 8 22 C4.37 21.67 0.74 21.34 -3 21 C-3.66 23.31 -4.32 25.62 -5 28 C-6.65 28.33 -8.3 28.66 -10 29 C-9.34741705 25.23185973 -8.29013667 21.83458532 -6.93359375 18.26171875 C-6.53076172 17.19501953 -6.12792969 16.12832031 -5.71289062 15.02929688 C-5.29201172 13.92650391 -4.87113281 12.82371094 -4.4375 11.6875 C-4.01275391 10.56537109 -3.58800781 9.44324219 -3.15039062 8.28710938 C-2.10371244 5.52340854 -1.05347135 2.76111699 0 0 Z M2 6 C0.515 11.445 0.515 11.445 -1 17 C1.31 17 3.62 17 6 17 C5.44894091 13.0507432 4.61064629 9.65079826 3 6 C2.67 6 2.34 6 2 6 Z " fill="#000000" transform="translate(167,45)"/>
<path d="M0 0 C5.28 0 10.56 0 16 0 C16 1.32 16 2.64 16 4 C12.04 4 8.08 4 4 4 C4 6.64 4 9.28 4 12 C7.96 12 11.92 12 16 12 C16 13.32 16 14.64 16 16 C12.04 16 8.08 16 4 16 C4 18.97 4 21.94 4 25 C7.96 25 11.92 25 16 25 C16 26.32 16 27.64 16 29 C10.72 29 5.44 29 0 29 C0 19.43 0 9.86 0 0 Z " fill="#000000" transform="translate(207,45)"/>
<path d="M0 0 C1.58167969 0.03673828 1.58167969 0.03673828 3.1953125 0.07421875 C5.875 0.3125 5.875 0.3125 7.875 1.3125 C7.545 2.6325 7.215 3.9525 6.875 5.3125 C3.245 5.3125 -0.385 5.3125 -4.125 5.3125 C-4.455 6.3025 -4.785 7.2925 -5.125 8.3125 C-2.83641653 10.83732434 -0.50156871 12.34383323 2.5 13.9375 C6.79166667 16.22916667 6.79166667 16.22916667 7.875 17.3125 C8.46759259 24.54212963 8.46759259 24.54212963 6 27.75 C2.91240353 30.02029152 1.21992389 30.44992175 -2.5625 30.4375 C-3.73619141 30.44136719 -3.73619141 30.44136719 -4.93359375 30.4453125 C-7.125 30.3125 -7.125 30.3125 -10.125 29.3125 C-10.125 27.6625 -10.125 26.0125 -10.125 24.3125 C-9.35414063 24.39628906 -8.58328125 24.48007813 -7.7890625 24.56640625 C-6.78617188 24.66824219 -5.78328125 24.77007812 -4.75 24.875 C-3.75226563 24.97941406 -2.75453125 25.08382812 -1.7265625 25.19140625 C0.859037 25.52394708 0.859037 25.52394708 2.875 24.3125 C2.80148554 21.90830715 2.80148554 21.90830715 1.875 19.3125 C-0.59988557 17.47797209 -0.59988557 17.47797209 -3.625 16.125 C-9.04145354 13.47959292 -9.04145354 13.47959292 -10.125 11.3125 C-10.70120526 5.08948322 -10.70120526 5.08948322 -8.48828125 2.10546875 C-5.4624269 -0.19017943 -3.75628503 -0.13382342 0 0 Z " fill="#000000" transform="translate(147.125,44.6875)"/>
<path d="M0 0 C5.61 0 11.22 0 17 0 C17 1.32 17 2.64 17 4 C12.71 4 8.42 4 4 4 C4 6.97 4 9.94 4 13 C7.96 13 11.92 13 16 13 C16 14.32 16 15.64 16 17 C12.04 17 8.08 17 4 17 C4 20.96 4 24.92 4 29 C2.68 29 1.36 29 0 29 C0 19.43 0 9.86 0 0 Z " fill="#000000" transform="translate(186,45)"/>
<path d="M0 0 C0 3.51802085 -0.65463404 4.25673874 -2.703125 7.01953125 C-3.27160156 7.79490234 -3.84007813 8.57027344 -4.42578125 9.36914062 C-5.02777344 10.17544922 -5.62976563 10.98175781 -6.25 11.8125 C-7.42283916 13.40163262 -8.59473463 14.9914622 -9.765625 16.58203125 C-10.32185547 17.33564941 -10.87808594 18.08926758 -11.45117188 18.86572266 C-13.38316852 21.52800429 -15.20640581 24.24301487 -17 27 C-17.33 25.68 -17.66 24.36 -18 23 C-18.66 23 -19.32 23 -20 23 C-20.226875 23.515625 -20.45375 24.03125 -20.6875 24.5625 C-22.4975553 27.92403127 -24.73996404 30.92911144 -27 34 C-27.66 33.01 -28.32 32.02 -29 31 C-30.485 32.485 -30.485 32.485 -32 34 C-32.66 33.67 -33.32 33.34 -34 33 C-32.57455646 30.8244803 -31.13585452 28.66018146 -29.6875 26.5 C-29.28337891 25.87996094 -28.87925781 25.25992188 -28.46289062 24.62109375 C-27.38507533 23.02627762 -26.19816168 21.5064969 -25 20 C-24.01 20 -23.02 20 -22 20 C-19.85068429 17.54785676 -19.85068429 17.54785676 -17.8125 14.5 C-17.09707031 13.4790625 -16.38164063 12.458125 -15.64453125 11.40625 C-15.10183594 10.6121875 -14.55914062 9.818125 -14 9 C-13.34 10.32 -12.68 11.64 -12 13 C-8.04 8.71 -4.08 4.42 0 0 Z " fill="#E71C2B" transform="translate(53,22)"/>
<path d="M0 0 C4.88049925 3.9419417 9.0580583 8.11950075 13 13 C13.66 11.68 14.32 10.36 15 9 C15.61488281 9.86625 16.22976562 10.7325 16.86328125 11.625 C17.6791755 12.75037138 18.49560989 13.87535129 19.3125 15 C19.91868164 15.85851562 19.91868164 15.85851562 20.53710938 16.734375 C21.61900525 18.21208644 22.80455549 19.61254109 24 21 C24.99 21 25.98 21 27 21 C29.04296875 23.40625 29.04296875 23.40625 31.1875 26.5 C32.26064453 28.03140625 32.26064453 28.03140625 33.35546875 29.59375 C33.89816406 30.3878125 34.44085938 31.181875 35 32 C34.505 32.99 34.505 32.99 34 34 C32.35 32.68 30.7 31.36 29 30 C28.67 30.99 28.34 31.98 28 33 C25.36 29.7 22.72 26.4 20 23 C19.34 23.99 18.68 24.98 18 26 C17.5968457 25.45061768 17.19369141 24.90123535 16.77832031 24.33520508 C14.9366419 21.82683062 13.09333607 19.3196565 11.25 16.8125 C10.61578125 15.94818359 9.9815625 15.08386719 9.328125 14.19335938 C6.79051169 10.74379128 4.26470452 7.32245057 1.546875 4.01171875 C0 2 0 2 0 0 Z " fill="#E61323" transform="translate(66,22)"/>
<path d="M0 0 C2.5 1.375 2.5 1.375 5 3 C5 3.66 5 4.32 5 5 C5.66 5 6.32 5 7 5 C6.67 3.68 6.34 2.36 6 1 C9.26008643 4.16952847 12.22237877 7.39937989 15 11 C15.66 10.01 16.32 9.02 17 8 C23.40027926 16.2842863 29.74053518 24.60868847 36 33 C35.505 33.99 35.505 33.99 35 35 C30.71 30.38 26.42 25.76 22 21 C21.34 21.99 20.68 22.98 20 24 C17.03 20.37 14.06 16.74 11 13 C10.01 13.495 10.01 13.495 9 14 C7.49412261 12.04594482 5.99521356 10.08718716 4.5 8.125 C4.07074219 7.56941406 3.64148438 7.01382813 3.19921875 6.44140625 C0 2.2265625 0 2.2265625 0 0 Z " fill="#E71B2A" transform="translate(19,64)"/>
<path d="M0 0 C0 4.03194851 -1.97273776 6.10771993 -4.3125 9.1875 C-4.71662109 9.74630859 -5.12074219 10.30511719 -5.53710938 10.88085938 C-6.73828125 12.48046875 -6.73828125 12.48046875 -9 15 C-9.99 15 -10.98 15 -12 15 C-13.92215272 17.22358348 -13.92215272 17.22358348 -15.6875 20 C-16.31011719 20.928125 -16.93273437 21.85625 -17.57421875 22.8125 C-18.04472656 23.534375 -18.51523438 24.25625 -19 25 C-19.66 23.68 -20.32 22.36 -21 21 C-24.96 25.29 -28.92 29.58 -33 34 C-33 30.46763807 -32.32444095 29.71858763 -30.26171875 26.9453125 C-29.68873047 26.16542969 -29.11574219 25.38554688 -28.52539062 24.58203125 C-27.91888672 23.77121094 -27.31238281 22.96039063 -26.6875 22.125 C-25.50209987 20.52477404 -24.31845379 18.92324696 -23.13671875 17.3203125 C-22.58290527 16.57168945 -22.0290918 15.82306641 -21.45849609 15.05175781 C-19.86824038 12.87931399 -19.86824038 12.87931399 -18.20703125 9.9296875 C-17.80871094 9.29289062 -17.41039063 8.65609375 -17 8 C-16.34 8 -15.68 8 -15 8 C-14.67 8.99 -14.34 9.98 -14 11 C-11.69 8.03 -9.38 5.06 -7 2 C-6.34 2.66 -5.68 3.32 -5 4 C-3.35 2.68 -1.7 1.36 0 0 Z " fill="#E61A29" transform="translate(101,63)"/>
<path d="M0 0 C3.63 0 7.26 0 11 0 C11 0.99 11 1.98 11 3 C10.01 3 9.02 3 8 3 C8 10.59 8 18.18 8 26 C8.99 26 9.98 26 11 26 C11 26.99 11 27.98 11 29 C7.37 29 3.74 29 0 29 C0 28.01 0 27.02 0 26 C0.99 26 1.98 26 3 26 C2.67 18.74 2.34 11.48 2 4 C1.34 3.67 0.68 3.34 0 3 C0 2.01 0 1.02 0 0 Z " fill="#000000" transform="translate(331,45)"/>
<path d="M0 0 C0.78117187 0.65935547 0.78117187 0.65935547 1.578125 1.33203125 C-1.03782939 2.34095592 -2.08525698 2.47926555 -4.69921875 1.3359375 C-6.01599609 0.62244141 -6.01599609 0.62244141 -7.359375 -0.10546875 C-13.31486039 -2.73525873 -18.56460609 -3.16854063 -25.046875 -3.16796875 C-25.91691162 -3.17368896 -26.78694824 -3.17940918 -27.68334961 -3.18530273 C-36.10213093 -3.02738611 -43.79507334 -1.14762307 -50.921875 3.45703125 C-51.7365625 3.97523437 -52.55125 4.4934375 -53.390625 5.02734375 C-54.0609375 5.45789062 -54.73125 5.8884375 -55.421875 6.33203125 C-56.411875 6.82703125 -56.411875 6.82703125 -57.421875 7.33203125 C-58.081875 6.67203125 -58.741875 6.01203125 -59.421875 5.33203125 C-42.87732975 -7.44423363 -18.41512942 -12.68267784 0 0 Z " fill="#267CB5" transform="translate(85.421875,14.66796875)"/>
<path d="M0 0 C13.83771227 4.15580644 23.93620145 12.58597864 31.32421875 24.84375 C36.88231929 35.1776999 37.33778471 43.3951192 35.90625 54.78515625 C35.57625 54.78515625 35.24625 54.78515625 34.90625 54.78515625 C34.89207031 53.93695313 34.87789062 53.08875 34.86328125 52.21484375 C34.38328426 40.40951229 31.95689354 29.40806816 24.04296875 20.23828125 C22.90625 18.78515625 22.90625 18.78515625 22.90625 16.78515625 C21.91625 16.45515625 20.92625 16.12515625 19.90625 15.78515625 C19.90625 15.12515625 19.90625 14.46515625 19.90625 13.78515625 C19.32875 13.51445312 18.75125 13.24375 18.15625 12.96484375 C15.89458002 11.77903762 13.96578997 10.41580479 11.90625 8.91015625 C6.63128138 5.31718931 0.99957282 3.5378887 -5.09375 1.78515625 C-2.09375 -0.21484375 -2.09375 -0.21484375 0 0 Z " fill="#DAE6F0" transform="translate(76.09375,8.21484375)"/>
<path d="M0 0 C5.28 0 10.56 0 16 0 C16.66 2.31 17.32 4.62 18 7 C11.4 7 4.8 7 -2 7 C-1.34 4.69 -0.68 2.38 0 0 Z " fill="#EDF2F6" transform="translate(52,41)"/>
<path d="M0 0 C3.31940087 1.45130755 5.52775203 3.30629947 8.125 5.8125 C17.38229646 14.18814917 27.76576596 17.11612371 40 17.625 C40.77472656 17.66367188 41.54945312 17.70234375 42.34765625 17.7421875 C44.23143415 17.83521357 46.11568256 17.91863175 48 18 C47.67 18.66 47.34 19.32 47 20 C31.4585492 20.71821852 17.75061941 18.52582709 5.60546875 7.90625 C3.63052179 5.99701931 1.72431734 4.13853882 0 2 C0 1.34 0 0.68 0 0 Z " fill="#E4ECF3" transform="translate(21,89)"/>
<path d="M0 0 C0.66 0 1.32 0 2 0 C1.43179252 5.45479185 0.05362055 9.91059256 -2 15 C-0.02 15 1.96 15 4 15 C3.67 12.69 3.34 10.38 3 8 C3.66 8 4.32 8 5 8 C8 13.625 8 13.625 8 17 C3.05 17 -1.9 17 -7 17 C-4.69 11.39 -2.38 5.78 0 0 Z " fill="#0F70AE" transform="translate(59,18)"/>
<path d="M0 0 C1.485 0.99 1.485 0.99 3 2 C3.39553342 4.82523869 3.64429523 7.53596847 3.8125 10.375 C4.61344118 20.11946034 7.55855269 26.83782904 13 35 C11.515 35.495 11.515 35.495 10 36 C4.40915321 26.5138911 -0.17406868 17.40686772 -0.0625 6.25 C-0.05347656 5.07953125 -0.04445313 3.9090625 -0.03515625 2.703125 C-0.02355469 1.81109375 -0.01195312 0.9190625 0 0 Z " fill="#DBE6F0" transform="translate(10,54)"/>
<path d="M0 0 C0.33 0 0.66 0 1 0 C1.33 1.65 1.66 3.3 2 5 C2.33 5 2.66 5 3 5 C3.16435547 6.66675781 3.16435547 6.66675781 3.33203125 8.3671875 C4.18419296 16.51953449 5.14576521 24.2555096 8 32 C6.515 32.495 6.515 32.495 5 33 C4.34743544 31.29422658 3.70326959 29.58523911 3.0625 27.875 C2.70285156 26.92367187 2.34320313 25.97234375 1.97265625 24.9921875 C0.07990813 19.16951658 -0.13366124 13.67917926 -0.0625 7.625 C-0.05798828 6.88894531 -0.05347656 6.15289062 -0.04882812 5.39453125 C-0.03715142 3.59631842 -0.01922011 1.79814803 0 0 Z " fill="#3181B7" transform="translate(3,51)"/>
<path d="M0 0 C11.1419875 -0.44502021 20.67939008 0.7075221 31 5 C30.67 5.99 30.34 6.98 30 8 C29.47535156 7.80664062 28.95070313 7.61328125 28.41015625 7.4140625 C21.91557899 5.23119294 15.60168092 4.35607189 8.80297852 3.82275391 C3.41780552 3.32577429 3.41780552 3.32577429 0.99609375 1.4375 C0.66738281 0.963125 0.33867188 0.48875 0 0 Z " fill="#2E7FB6" transform="translate(53,3)"/>
<path d="M0 0 C1.87939453 -0.34057617 1.87939453 -0.34057617 4.1328125 -0.29296875 C4.93847656 -0.28330078 5.74414062 -0.27363281 6.57421875 -0.26367188 C7.41597656 -0.23853516 8.25773437 -0.21339844 9.125 -0.1875 C9.97449219 -0.17396484 10.82398438 -0.16042969 11.69921875 -0.14648438 C13.79974837 -0.11108219 15.89995293 -0.05727401 18 0 C18 0.99 18 1.98 18 3 C12.39 3 6.78 3 1 3 C0.34 5.31 -0.32 7.62 -1 10 C-1.99 9.67 -2.98 9.34 -4 9 C-2.94124926 5.59687262 -1.99097846 2.98646769 0 0 Z " fill="#1F79B3" transform="translate(51,38)"/>
<path d="M0 0 C0 0.33 0 0.66 0 1 C-0.90878906 1.22042969 -0.90878906 1.22042969 -1.8359375 1.4453125 C-11.79877563 4.11228763 -19.4357832 9.09354118 -27 16 C-27 12 -27 12 -25.19921875 10.03515625 C-8.58234729 -3.01541932 -8.58234729 -3.01541932 0 0 Z " fill="#2D7FB6" transform="translate(52,15)"/>
<path d="M0 0 C3.87869314 1.29289771 4.32416354 2.77935368 6.375 6.25 C8.92911226 10.42008986 11.33603887 13.78015537 15 17 C14.67 17.99 14.34 18.98 14 20 C7.74719339 15.62303538 3.71314436 9.61580543 0 3 C0 2.01 0 1.02 0 0 Z " fill="#2179B3" transform="translate(9,83)"/>
<path d="M0 0 C-1.66796875 1.14453125 -1.66796875 1.14453125 -4 2 C-6.48828125 1.13671875 -6.48828125 1.13671875 -9.3125 -0.3125 C-16.56964264 -3.6136477 -23.12001141 -3.88158487 -31 -4 C-31 -4.33 -31 -4.66 -31 -5 C-19.27650132 -6.49061667 -10.57412862 -5.26152294 0 0 Z " fill="#3985BA" transform="translate(87,15)"/>
<path d="M0 0 C6.88511846 1.82990406 13.65302538 2.32054399 20.75 2.625 C20.75 2.955 20.75 3.285 20.75 3.625 C2.67645732 5.48617127 2.67645732 5.48617127 -5.25 1.625 C-5.91 0.965 -6.57 0.305 -7.25 -0.375 C-4.41490491 -1.79254754 -3.01615751 -0.87904056 0 0 Z " fill="#D0E0EC" transform="translate(43.25,108.375)"/>
<path d="M0 0 C0.9075 0.825 1.815 1.65 2.75 2.5 C7.80008522 6.85244458 13.41207339 10.38482252 19 14 C17.34375 14.73046875 17.34375 14.73046875 15 15 C12.34375 13.48828125 12.34375 13.48828125 9.5 11.3125 C8.5615625 10.60738281 7.623125 9.90226562 6.65625 9.17578125 C4.25920764 7.21232155 2.02538567 5.34543482 0 3 C0 2.01 0 1.02 0 0 Z " fill="#E5EDF4" transform="translate(19,93)"/>
<path d="M0 0 C7.92 0.33 15.84 0.66 24 1 C24 1.66 24 2.32 24 3 C20.75007554 3.05819424 17.50028565 3.09366116 14.25 3.125 C13.32960938 3.14175781 12.40921875 3.15851563 11.4609375 3.17578125 C10.12675781 3.18544922 10.12675781 3.18544922 8.765625 3.1953125 C7.54020996 3.21102295 7.54020996 3.21102295 6.29003906 3.22705078 C3.78112482 2.97829916 2.16604375 2.25700129 0 1 C0 0.67 0 0.34 0 0 Z " fill="#1573B0" transform="translate(46,108)"/>
<path d="M0 0 C0.66 0.33 1.32 0.66 2 1 C2.22311393 8.32557399 2.08354169 14.93910871 0 22 C-0.66 22.33 -1.32 22.66 -2 23 C-1.43434519 15.32153678 -0.8123221 7.65656792 0 0 Z " fill="#EDF1F6" transform="translate(112,53)"/>
<path d="M0 0 C0.33 1.32 0.66 2.64 1 4 C-0.76638144 5.48448016 -2.53826138 6.96241965 -4.3125 8.4375 C-5.29863281 9.26121094 -6.28476563 10.08492187 -7.30078125 10.93359375 C-10 13 -10 13 -13 14 C-12.62355752 11.39299537 -12.2656158 10.24312659 -10.29296875 8.4375 C-9.59816406 7.963125 -8.90335937 7.48875 -8.1875 7 C-5.17167871 4.86672605 -2.51694196 2.72668712 0 0 Z " fill="#3081B7" transform="translate(94,88)"/>
<path d="M0 0 C0.75410156 0.00322266 1.50820313 0.00644531 2.28515625 0.00976562 C3.06246094 0.01814453 3.83976562 0.02652344 4.640625 0.03515625 C5.43339844 0.03966797 6.22617187 0.04417969 7.04296875 0.04882812 C8.99222008 0.0605706 10.94143238 0.07850479 12.890625 0.09765625 C12.890625 0.42765625 12.890625 0.75765625 12.890625 1.09765625 C10.16235135 1.60300352 7.43317806 2.1020947 4.703125 2.59765625 C3.93419922 2.74074219 3.16527344 2.88382812 2.37304688 3.03125 C-1.50359273 3.7300434 -5.150846 4.28804642 -9.109375 4.09765625 C-8.779375 3.10765625 -8.449375 2.11765625 -8.109375 1.09765625 C-5.41165718 0.07962888 -2.8613733 -0.02167707 0 0 Z " fill="#1473B0" transform="translate(51.109375,3.90234375)"/>
<path d="M0 0 C0.66 0 1.32 0 2 0 C1.52083273 4.66557602 -0.29113228 6.91442286 -3.4375 10.3125 C-4.24058594 11.19550781 -5.04367188 12.07851562 -5.87109375 12.98828125 C-8 15 -8 15 -10 15 C-8.52501821 11.75355767 -6.66337381 9.15385708 -4.4375 6.375 C-1.9803419 3.33933997 -1.9803419 3.33933997 0 0 Z " fill="#2078B3" transform="translate(102,84)"/>
<path d="M0 0 C0.66 0 1.32 0 2 0 C1.43179252 5.45479185 0.05362055 9.91059256 -2 15 C-2.99 14.67 -3.98 14.34 -5 14 C-4.34580901 8.93001981 -2.1453591 4.58009223 0 0 Z " fill="#2179B3" transform="translate(59,18)"/>
<path d="M0 0 C-0.33 0.66 -0.66 1.32 -1 2 C-2.2375 1.690625 -3.475 1.38125 -4.75 1.0625 C-10.45164503 -0.21968812 -16.17873504 -0.62570547 -22 -1 C-22 -1.33 -22 -1.66 -22 -2 C-14.36699064 -3.24903789 -7.12490081 -3.44753265 0 0 Z " fill="#CEDFEC" transform="translate(79,14)"/>
<path d="M0 0 C0 3 0 3 -1.3203125 4.71875 C-4.96876664 8.31982162 -8.18761644 11.00462145 -13 13 C-12.87890625 11.296875 -12.87890625 11.296875 -12 9 C-10.00484099 7.27105302 -8.08570336 5.75742499 -5.9375 4.25 C-5.08575195 3.63318359 -5.08575195 3.63318359 -4.21679688 3.00390625 C-2.81805343 1.99304964 -1.40990625 0.99522794 0 0 Z " fill="#2179B3" transform="translate(102,95)"/>
<path d="M0 0 C3.3 0 6.6 0 10 0 C10 1.32 10 2.64 10 4 C6.7 4 3.4 4 0 4 C0 2.68 0 1.36 0 0 Z " fill="#000000" transform="translate(282,61)"/>
<path d="M0 0 C-0.33 0.66 -0.66 1.32 -1 2 C-4.776086 3.08179761 -8.40497142 3.10543987 -12.3125 3.0625 C-13.38113281 3.05347656 -14.44976562 3.04445313 -15.55078125 3.03515625 C-16.35902344 3.02355469 -17.16726562 3.01195313 -18 3 C-18.33 2.34 -18.66 1.68 -19 1 C-12.63849395 0.34513908 -6.39628979 -0.12068471 0 0 Z " fill="#EEF2F7" transform="translate(72,111)"/>
<path d="M0 0 C5.28776943 0.33048559 9.24100622 3.48352195 13 7 C13 7.66 13 8.32 13 9 C9.55251042 8.35952602 7.15355815 7.00294981 4.25 5.0625 C3.45078125 4.53785156 2.6515625 4.01320313 1.828125 3.47265625 C1.22484375 2.98667969 0.6215625 2.50070312 0 2 C0 1.34 0 0.68 0 0 Z " fill="#1A75B1" transform="translate(83,9)"/>
<path d="M0 0 C1 3 1 3 -0.109375 5.62890625 C-0.65078125 6.59699219 -1.1921875 7.56507812 -1.75 8.5625 C-2.54664062 10.01849609 -2.54664062 10.01849609 -3.359375 11.50390625 C-5 14 -5 14 -8 16 C-7.24736665 9.79077488 -3.84049486 4.80061857 0 0 Z " fill="#2179B3" transform="translate(103,74)"/>
<path d="M0 0 C0.99 0 1.98 0 3 0 C2.01 2.97 1.02 5.94 0 9 C-0.99 9 -1.98 9 -3 9 C-2.5020163 5.26512223 -2.12508244 3.18762365 0 0 Z M-7 9 C-5.68 9.33 -4.36 9.66 -3 10 C-3.99 10.495 -3.99 10.495 -5 11 C-5.66 10.34 -6.32 9.68 -7 9 Z " fill="#E4ECF4" transform="translate(71,62)"/>
<path d="M0 0 C1.44977894 2.34112451 2.04314411 3.5796929 1.7578125 6.359375 C1.54898437 7.14828125 1.34015625 7.9371875 1.125 8.75 C0.92132813 9.54921875 0.71765625 10.3484375 0.5078125 11.171875 C0.34023437 11.77515625 0.17265625 12.3784375 0 13 C-0.33 13 -0.66 13 -1 13 C-1.33 14.65 -1.66 16.3 -2 18 C-2.33 18 -2.66 18 -3 18 C-3.36517527 11.42684522 -2.13619737 6.20514474 0 0 Z " fill="#3182B8" transform="translate(11,41)"/>
<path d="M0 0 C1.90389849 2.85584773 2.69462177 4.9311762 3.625 8.1875 C3.88539062 9.08855469 4.14578125 9.98960938 4.4140625 10.91796875 C4.60742188 11.60503906 4.80078125 12.29210937 5 13 C4.34 13.66 3.68 14.32 3 15 C-1.77676538 5.77448747 -1.77676538 5.77448747 0 0 Z " fill="#3785B9" transform="translate(15,68)"/>
<path d="M0 0 C1.485 0.99 1.485 0.99 3 2 C3.36328125 4.4609375 3.36328125 4.4609375 3.3125 7.375 C3.30863281 8.33148438 3.30476562 9.28796875 3.30078125 10.2734375 C3.00100077 12.99092807 2.38578659 14.67011179 1 17 C-0.13480527 13.39006828 -0.10015767 10.0157673 -0.0625 6.25 C-0.05347656 5.07953125 -0.04445313 3.9090625 -0.03515625 2.703125 C-0.02355469 1.81109375 -0.01195312 0.9190625 0 0 Z " fill="#A0C1DB" transform="translate(10,54)"/>
<path d="M0 0 C0.66 0.33 1.32 0.66 2 1 C1.54857225 2.77260631 1.08859477 4.5430368 0.625 6.3125 C0.36976562 7.29863281 0.11453125 8.28476562 -0.1484375 9.30078125 C-1 12 -1 12 -3 15 C-4.43410153 11.21180727 -3.51009497 8.93478721 -2.0625 5.25 C-1.49208984 3.77273437 -1.49208984 3.77273437 -0.91015625 2.265625 C-0.60980469 1.51796875 -0.30945313 0.7703125 0 0 Z " fill="#DBE6F0" transform="translate(11,36)"/>
<path d="M0 0 C1.32 0.66 2.64 1.32 4 2 C-0.95 4.97 -0.95 4.97 -6 8 C-6.66 7.34 -7.32 6.68 -8 6 C-5.36 4.02 -2.72 2.04 0 0 Z " fill="#3081B7" transform="translate(34,14)"/>
<path d="M0 0 C2.73704754 2.73704754 3.16182449 5.26044774 4 9 C3.625 11.4375 3.625 11.4375 3 13 C2.34 12.67 1.68 12.34 1 12 C0.33203125 9.78515625 0.33203125 9.78515625 -0.1875 7.0625 C-0.36667969 6.16660156 -0.54585938 5.27070312 -0.73046875 4.34765625 C-1 2 -1 2 0 0 Z " fill="#3383B8" transform="translate(107,40)"/>
<path d="M0 0 C1.32 0 2.64 0 4 0 C4.33 1.98 4.66 3.96 5 6 C3.02 6 1.04 6 -1 6 C-0.67 4.02 -0.34 2.04 0 0 Z " fill="#DBE7F0" transform="translate(58,27)"/>
<path d="M0 0 C7.48291572 6.15034169 7.48291572 6.15034169 10 10 C9.01 10.33 8.02 10.66 7 11 C5.82750647 9.54634731 4.66216184 8.08692581 3.5 6.625 C2.52546875 5.40683594 2.52546875 5.40683594 1.53125 4.1640625 C0 2 0 2 0 0 Z " fill="#E93E4A" transform="translate(66,22)"/>
<path d="M0 0 C5.26053037 -0.31563182 8.44573816 0.33409063 13 3 C11.296875 4.1171875 11.296875 4.1171875 9 5 C6.640625 4.3203125 6.640625 4.3203125 4.25 3.125 C3.45078125 2.73570313 2.6515625 2.34640625 1.828125 1.9453125 C0.92320313 1.47738281 0.92320313 1.47738281 0 1 C0 0.67 0 0.34 0 0 Z " fill="#2D7FB6" transform="translate(74,12)"/>
<path d="M0 0 C3.36720387 1.39332574 4.9859524 2.9789286 7 6 C6.01 6.33 5.02 6.66 4 7 C2.35 5.02 0.7 3.04 -1 1 C-0.67 0.67 -0.34 0.34 0 0 Z " fill="#3282B8" transform="translate(22,93)"/>
<path d="M0 0 C0.99 0 1.98 0 3 0 C3.66 2.31 4.32 4.62 5 7 C4.01 7.33 3.02 7.66 2 8 C0.74335022 5.09399739 0 3.20395416 0 0 Z " fill="#E6EDF4" transform="translate(47,63)"/>
<path d="M0 0 C0.99 0.33 1.98 0.66 3 1 C2.34 1 1.68 1 1 1 C1.33 1.763125 1.66 2.52625 2 3.3125 C3 6 3 6 3 9 C2.01 9 1.02 9 0 9 C-0.84454356 5.62182575 -1.10844919 3.32534757 0 0 Z " fill="#3282B8" transform="translate(46,62)"/>
<path d="M0 0 C0.33 0.66 0.66 1.32 1 2 C1.66 2 2.32 2 3 2 C3.33 3.32 3.66 4.64 4 6 C3.01 6.495 3.01 6.495 2 7 C1.67 6.01 1.34 5.02 1 4 C0.01 4.99 -0.98 5.98 -2 7 C-2.66 6.67 -3.32 6.34 -4 6 C-2.68 4.02 -1.36 2.04 0 0 Z " fill="#E93E4A" transform="translate(23,49)"/>
<path d="M0 0 C4.79280002 0.80904103 6.13520113 3.25984591 9 7 C6 7 6 7 4.39453125 5.46875 C3.87246094 4.8190625 3.35039063 4.169375 2.8125 3.5 C2.28269531 2.8503125 1.75289063 2.200625 1.20703125 1.53125 C0.80871094 1.0259375 0.41039063 0.520625 0 0 Z " fill="#E7EEF5" transform="translate(89,22)"/>
<path d="M0 0 C2.64 0.33 5.28 0.66 8 1 C7.01 2.485 7.01 2.485 6 4 C3.36 3.67 0.72 3.34 -2 3 C-1.34 2.67 -0.68 2.34 0 2 C0 1.34 0 0.68 0 0 Z " fill="#3584B9" transform="translate(46,112)"/>
<path d="M0 0 C2.31 0 4.62 0 7 0 C7 0.99 7 1.98 7 3 C4.69 3 2.38 3 0 3 C0 2.01 0 1.02 0 0 Z " fill="#C1D7E7" transform="translate(61,76)"/>
<path d="M0 0 C0.33 0.99 0.66 1.98 1 3 C1.66 3 2.32 3 3 3 C2.67 5.31 2.34 7.62 2 10 C1.01 9.67 0.02 9.34 -1 9 C-0.67 6.03 -0.34 3.06 0 0 Z " fill="#3684B9" transform="translate(113,66)"/>
<path d="M0 0 C1.36118461 2.24195113 2.06138028 3.47826762 1.75 6.125 C1 8 1 8 -1 10 C-1.33 7.36 -1.66 4.72 -2 2 C-1.34 2 -0.68 2 0 2 C0 1.34 0 0.68 0 0 Z " fill="#3584B9" transform="translate(114,44)"/>
<path d="M0 0 C0.66 0 1.32 0 2 0 C1.5206753 4.31392226 0.2542015 6.16569547 -3 9 C-2.44271087 5.65626525 -1.64826111 2.96687001 0 0 Z " fill="#E1EAF2" transform="translate(101,81)"/>
<path d="M0 0 C0.33 0.66 0.66 1.32 1 2 C-1.31 2.33 -3.62 2.66 -6 3 C-6 2.34 -6 1.68 -6 1 C-6.99 0.67 -7.98 0.34 -9 0 C-2.25 -1.125 -2.25 -1.125 0 0 Z " fill="#2E80B7" transform="translate(75,113)"/>
<path d="M0 0 C3.37462715 0.54723683 5.08235 1.0549 8 3 C8 3.66 8 4.32 8 5 C4.75791433 4.64950425 3.38472296 4.43778819 1.1875 1.9375 C0.795625 1.298125 0.40375 0.65875 0 0 Z " fill="#1C76B1" transform="translate(27,99)"/>
<path d="M0 0 C-1.28519565 2.86697492 -2.57129254 4.97607712 -5 7 C-5.66 7 -6.32 7 -7 7 C-3.86206897 0 -3.86206897 0 0 0 Z " fill="#1372AF" transform="translate(99,92)"/>
<path d="M0 0 C0.33 1.32 0.66 2.64 1 4 C-0.32 4.99 -1.64 5.98 -3 7 C-3.66 6.34 -4.32 5.68 -5 5 C-3.35 3.35 -1.7 1.7 0 0 Z " fill="#458CBE" transform="translate(94,88)"/>
<path d="M0 0 C0.99 0.66 1.98 1.32 3 2 C2.34 3.65 1.68 5.3 1 7 C0.01 7 -0.98 7 -2 7 C-1.34 4.69 -0.68 2.38 0 0 Z " fill="#2E80B6" transform="translate(73,64)"/>
<path d="M0 0 C0.33 0.66 0.66 1.32 1 2 C1.66 2 2.32 2 3 2 C2.67 3.98 2.34 5.96 2 8 C1.01 8 0.02 8 -1 8 C-0.67 5.36 -0.34 2.72 0 0 Z " fill="#2D7FB6" transform="translate(5,43)"/>
<path d="M0 0 C2.72426311 2.35277269 3.8141763 4.62496331 5 8 C4.01 8 3.02 8 2 8 C-0.1519437 4.77208445 -0.20086443 3.71599191 0 0 Z " fill="#2B7FB6" transform="translate(105,26)"/>
<path d="M0 0 C0.33 0.99 0.66 1.98 1 3 C-0.65 4.32 -2.3 5.64 -4 7 C-4 5.68 -4 4.36 -4 3 C-2 1.25 -2 1.25 0 0 Z " fill="#3C88BB" transform="translate(29,24)"/>
<path d="M0 0 C0.99 0.33 1.98 0.66 3 1 C-0.465 3.97 -0.465 3.97 -4 7 C-4 4 -4 4 -2 1.8125 C-1.34 1.214375 -0.68 0.61625 0 0 Z " fill="#1271AF" transform="translate(25,21)"/>
<path d="M0 0 C0.99 0.33 1.98 0.66 3 1 C0.31158141 3.25245881 -1.64641875 4.88213958 -5 6 C-3.63016497 2.83884224 -3.0109362 2.0072908 0 0 Z " fill="#E4ECF4" transform="translate(88,97)"/>
<path d="M0 0 C-0.75 1.9375 -0.75 1.9375 -2 4 C-4.125 4.75 -4.125 4.75 -6 5 C-5.625 3.0625 -5.625 3.0625 -5 1 C-3 0 -3 0 0 0 Z " fill="#F1D3D6" transform="translate(67,97)"/>
<path d="M0 0 C0.66 0 1.32 0 2 0 C2.33 1.65 2.66 3.3 3 5 C0.50935112 5.68707555 -1.37886292 6 -4 6 C-2.7260411 3.96166576 -1.38938077 1.96147874 0 0 Z " fill="#EB4D58" transform="translate(84,71)"/>
<path d="M0 0 C-2.61941217 1.74627478 -4.03824877 2.38722388 -7 3 C-7.33 2.01 -7.66 1.02 -8 0 C-4.71023192 -1.09658936 -3.28696233 -0.79953138 0 0 Z " fill="#D0E0EC" transform="translate(78,110)"/>
<path d="M0 0 C0 0.66 0 1.32 0 2 C-3.375 2.625 -3.375 2.625 -7 3 C-7.66 2.34 -8.32 1.68 -9 1 C-5.92677456 0.08941469 -3.19902639 -0.08886184 0 0 Z " fill="#1E78B3" transform="translate(77,107)"/>
<path d="M0 0 C-3.8503105 2.56687367 -5.58569763 1.83288724 -10 1 C-10 0.67 -10 0.34 -10 0 C-6.30458414 -0.95024979 -3.69541586 -0.95024979 0 0 Z " fill="#CFDFEC" transform="translate(75,106)"/>
<path d="M0 0 C0 3 0 3 -1.875 5.1875 C-4 7 -4 7 -6 7 C-4.60667426 3.63279613 -3.0210714 2.0140476 0 0 Z " fill="#096CAC" transform="translate(102,95)"/>
<path d="M0 0 C0.66 0.99 1.32 1.98 2 3 C0.35 4.65 -1.3 6.3 -3 8 C-2.45276317 4.62537285 -1.9451 2.91765 0 0 Z " fill="#2E7FB6" transform="translate(98,82)"/>
<path d="M0 0 C1.98 0 3.96 0 6 0 C6 0.99 6 1.98 6 3 C4.35 3 2.7 3 1 3 C0.67 2.01 0.34 1.02 0 0 Z " fill="#CADDEB" transform="translate(52,76)"/>
<path d="M0 0 C0.99 0.33 1.98 0.66 3 1 C1.68 2.32 0.36 3.64 -1 5 C-1.99 4.67 -2.98 4.34 -4 4 C-2.68 2.68 -1.36 1.36 0 0 Z " fill="#CDDDEB" transform="translate(27,22)"/>
</svg>
